<svg xmlns="http://www.w3.org/2000/svg" xml:space="preserve" width="2048" height="2048" style="shape-rendering:geometricPrecision;text-rendering:geometricPrecision;image-rendering:optimizeQuality;fill-rule:evenodd;clip-rule:evenodd"><path d="M255.998 695.305V490.491c0-17.673 14.328-32 32-32h1472c17.674 0 32.002 14.327 32.002 32v204.814H256zm1026.79-150.408c-17.673 0-32 14.328-32 32 0 17.674 14.327 32.002 32 32.002h16.523c17.672 0 32-14.328 32-32.001s-14.328-32.001-32-32.001h-16.523zm165.716 0c-17.673 0-32 14.328-32 32 0 17.674 14.327 32.002 32 32.002h16.523c17.672 0 32-14.328 32-32.001s-14.328-32.001-32-32.001h-16.523zm165.717 0c-17.673 0-32 14.328-32 32 0 17.674 14.327 32.002 32 32.002h16.523c17.672 0 32-14.328 32-32.001s-14.328-32.001-32-32.001h-16.523z" style="fill:#424242;fill-rule:nonzero"/><path d="M1792 1557.51V727.307H256v830.203c0 17.673 14.328 32 32 32h1472c17.674 0 32.002-14.327 32.002-32zm-521.915-282.321c9.37 9.37 24.567 9.37 33.938 0 9.37-9.37 9.37-24.567 0-33.938l-82.842-82.841 82.842-82.842c9.37-9.37 9.37-24.567 0-33.937-9.371-9.371-24.567-9.371-33.938 0l-99.723 99.722-.088.087c-9.373 9.372-9.373 24.568 0 33.94v-.001l99.811 99.81zm194.882-33.938c-9.37 9.371-9.37 24.567 0 33.938 9.37 9.37 24.567 9.37 33.938 0l99.81-99.81h.001c9.372-9.371 9.372-24.567 0-33.94l-.088-.086-99.723-99.722c-9.371-9.371-24.567-9.371-33.938 0-9.37 9.37-9.37 24.566 0 33.937l82.841 82.842-82.841 82.841zm-20.398-214.43c3.417-12.789-4.18-25.927-16.969-29.344-12.789-3.417-25.927 4.18-29.344 16.969L1324.42 1290c-3.417 12.789 4.18 25.927 16.97 29.344 12.788 3.417 25.927-4.18 29.344-16.969l73.835-275.554zm-857.695 28.565L534.93 938.718l-92.678 116.668h144.624zm15.051-4.62 128.861-119.142H548.797l53.128 119.143zm280.03 4.623-130.922-121.06-130.883 121.06h261.803zm71.152-123.764H771.32l128.756 119.046 53.033-119.046zm106.747 123.762L967.25 938.812l-51.932 116.575h144.538zm-282.899 310.592 280.817-294.591H908.19l-131.234 294.59zm-25.903 19.215 139.793-313.806-279.724.002 139.931 313.804zM725.17 1366l-131.171-294.612H444.333L725.17 1366z" style="fill:#424242"/><path style="fill:none" d="M0 0h2048v2048H0z"/></svg>